<svg xmlns="http://www.w3.org/2000/svg" viewBox="0 0 500 250">
  <!-- FLASH Text -->
  <defs>
    <linearGradient id="flashGradient" x1="0%" y1="0%" x2="100%" y2="100%">
      <stop offset="0%" stop-color="#f0c420" />
      <stop offset="100%" stop-color="#ff7700" />
    </linearGradient>
    <filter id="glow">
      <feGaussianBlur stdDeviation="2.5" result="blur" />
      <feComposite in="SourceGraphic" in2="blur" operator="over" />
    </filter>
  </defs>
  
  <!-- FLASH Text -->
  <g filter="url(#glow)">
    <!-- F -->
    <path d="M80,50 L120,50 L115,80 L95,80 L90,110 L105,110 L100,140 L85,140 L75,190 L45,190 L65,50 Z" fill="url(#flashGradient)" stroke="#6b3600" stroke-width="2" />
    
    <!-- L -->
    <path d="M125,50 L155,50 L135,190 L105,190 L125,50 Z" fill="url(#flashGradient)" stroke="#6b3600" stroke-width="2" />
    
    <!-- A -->
    <path d="M160,50 L190,50 L220,190 L190,190 L185,165 L165,165 L160,190 L130,190 L160,50 Z M170,140 L180,140 L175,95 L170,140 Z" fill="url(#flashGradient)" stroke="#6b3600" stroke-width="2" />
    
    <!-- S -->
    <path d="M230,50 L290,50 L285,80 L250,80 L245,100 L280,100 L265,190 L200,190 L205,160 L240,160 L245,140 L210,140 L225,50 Z" fill="url(#flashGradient)" stroke="#6b3600" stroke-width="2" />
    
    <!-- H -->
    <path d="M295,50 L325,50 L315,110 L335,110 L345,50 L375,50 L355,190 L325,190 L335,130 L315,130 L305,190 L275,190 L295,50 Z" fill="url(#flashGradient)" stroke="#6b3600" stroke-width="2" />
  </g>
  
  <!-- Globe Symbol -->
  <g transform="translate(250, 140)">
    <!-- Outer orbit -->
    <ellipse cx="0" cy="0" rx="45" ry="45" fill="none" stroke="rgba(255,255,255,0.5)" stroke-width="2" stroke-dasharray="5,5" />
    
    <!-- Satellite -->
    <circle cx="32" cy="-32" r="6" fill="#ffffff" filter="url(#glow)" />
    
    <!-- Globe -->
    <circle cx="0" cy="0" r="30" fill="url(#flashGradient)" stroke="#6b3600" stroke-width="2" />
    
    <!-- Grid lines on globe -->
    <path d="M-30,0 L30,0" stroke="rgba(255,255,255,0.3)" stroke-width="1" />
    <path d="M0,-30 L0,30" stroke="rgba(255,255,255,0.3)" stroke-width="1" />
    <ellipse cx="0" cy="0" rx="30" ry="10" fill="none" stroke="rgba(255,255,255,0.3)" stroke-width="1" />
    <ellipse cx="0" cy="0" rx="15" ry="30" fill="none" stroke="rgba(255,255,255,0.3)" stroke-width="1" transform="rotate(90)" />
  </g>
</svg>
